<?xml version="1.0" encoding="UTF-8" standalone="no"?>
<!DOCTYPE svg PUBLIC "-//W3C//DTD SVG 1.1//EN" "http://www.w3.org/Graphics/SVG/1.1/DTD/svg11.dtd">
<svg width="24.00" height="24.00" viewBox="0.00 0.00 24.00 24.00" xmlns="http://www.w3.org/2000/svg" xmlns:xlink="http://www.w3.org/1999/xlink">
<g stroke-linecap="round" id="wifi_lock_FILL0_wght400_GRAD0_opsz24">
<path d="M14.95,20.05 C13.34,20.05 14.32,20.00 13.93,20.00 C9.35,20.00 4.00,20.00 4.00,20.00 C3.45,20.00 2.98,19.80 2.59,19.41 C2.20,19.02 2.00,18.55 2.00,18.00 C2.00,18.00 2.00,6.00 2.00,6.00 C2.00,5.45 2.20,4.98 2.59,4.59 C2.98,4.20 3.45,4.00 4.00,4.00 C4.00,4.00 10.00,4.00 10.00,4.00 C10.00,4.00 12.00,6.00 12.00,6.00 C12.00,6.00 20.00,6.00 20.00,6.00 C20.55,6.00 21.02,6.20 21.41,6.59 C21.80,6.98 22.00,7.45 22.00,8.00 C22.00,8.00 22.00,9.57 22.00,11.96 C22.00,12.88 21.97,11.06 21.97,12.01 C20.75,12.01 21.38,12.01 20.03,12.01 C20.00,11.94 20.00,11.42 20.00,11.36 C20.00,9.30 20.00,8.00 20.00,8.00 C20.00,8.00 11.17,8.00 11.17,8.00 C11.17,8.00 9.17,6.00 9.17,6.00 C9.17,6.00 4.00,6.00 4.00,6.00 C4.00,6.00 4.00,18.00 4.00,18.00 C4.00,18.00 9.38,18.00 13.99,18.00 C14.17,18.00 14.59,18.00 14.97,18.00 C14.97,19.53 14.97,19.20 14.97,20.03" fill="none" stroke="rgb(0, 0, 0)" stroke-width="0.03" stroke-opacity="1.00" stroke-linejoin="miter"/>
<path d="M4.00,18.00 C4.00,18.00 4.00,6.00 4.00,6.00 C4.00,6.00 4.00,18.00 4.00,18.00 Z" fill="none" stroke="rgb(0, 0, 0)" stroke-width="0.03" stroke-opacity="1.00" stroke-linejoin="miter"/>
<path d="M17.00,21.00 C17.00,21.00 16.29,20.71 16.29,20.71 C16.29,20.71 16.00,20.28 16.00,20.00 C16.00,20.00 16.00,17.00 16.00,17.00 C16.00,17.00 16.29,16.29 16.29,16.29 C16.29,16.29 16.72,16.00 17.00,16.00 C17.00,16.00 17.00,15.00 17.00,15.00 C17.00,14.45 17.20,13.98 17.59,13.59 C17.98,13.20 18.45,13.00 19.00,13.00 C19.55,13.00 20.02,13.20 20.41,13.59 C20.80,13.98 21.00,14.45 21.00,15.00 C21.00,15.00 21.00,16.00 21.00,16.00 C21.00,16.00 21.71,16.29 21.71,16.29 C21.71,16.29 22.00,16.72 22.00,17.00 C22.00,17.00 22.00,20.00 22.00,20.00 C22.00,20.00 21.71,20.71 21.71,20.71 C21.71,20.71 21.28,21.00 21.00,21.00 C21.00,21.00 17.00,21.00 17.00,21.00 Z" fill="none" stroke="rgb(0, 0, 0)" stroke-width="0.03" stroke-opacity="1.00" stroke-linejoin="miter"/>
<path d="M18.00,16.00 C18.00,16.00 20.00,16.00 20.00,16.00 C20.00,16.00 20.00,15.00 20.00,15.00 C20.00,15.00 19.71,14.29 19.71,14.29 C19.71,14.29 19.00,14.00 19.00,14.00 C19.00,14.00 18.29,14.29 18.29,14.29 C18.29,14.29 18.00,14.72 18.00,15.00 C18.00,15.00 18.00,16.00 18.00,16.00 Z" fill="white" stroke="rgb(0, 0, 0)" stroke-width="0.03" stroke-opacity="1.00" stroke-linejoin="miter"/>
</g>
</svg>
